<?xml version="1.0" standalone="no"?>
<!DOCTYPE svg PUBLIC "-//W3C//DTD SVG 20010904//EN"
 "http://www.w3.org/TR/2001/REC-SVG-20010904/DTD/svg10.dtd">
<svg version="1.0" xmlns="http://www.w3.org/2000/svg"
 width="600.000000pt" height="600.000000pt" viewBox="0 0 600.000000 600.000000"
 preserveAspectRatio="xMidYMid meet">
<metadata>
Created by potrace 1.11, written by Peter Selinger 2001-2013
</metadata>
<g transform="translate(0.000000,600.000000) scale(0.100000,-0.100000)"
fill="#000000" stroke="none">
<path d="M2725 5990 c-708 -72 -1347 -373 -1845 -872 -677 -677 -988 -1626
-844 -2578 92 -615 378 -1188 818 -1639 435 -445 958 -730 1566 -851 230 -46
319 -52 647 -47 247 3 320 8 423 26 521 91 985 297 1390 617 117 93 401 379
490 494 332 431 532 901 611 1435 28 191 27 652 -1 850 -192 1329 -1236 2364
-2570 2550 -136 19 -553 28 -685 15z m280 -1524 c281 -186 515 -340 520 -342
6 -3 269 150 585 340 l575 343 3 -1386 c1 -762 0 -1400 -3 -1417 -5 -28 -55
-64 -577 -410 -314 -208 -578 -378 -587 -378 -9 0 -239 139 -511 309 -272 170
-504 310 -516 313 -20 4 -301 -151 -967 -534 -109 -63 -199 -114 -200 -114 -1
0 -1 635 0 1412 2 1180 5 1414 16 1426 20 19 1141 781 1147 779 3 -1 235 -154
515 -341z"/>
<path d="M1979 4177 c-202 -133 -374 -248 -383 -256 -15 -12 -16 -111 -16
-1157 0 -629 2 -1144 5 -1144 11 0 761 443 767 454 10 15 10 2346 1 2345 -5 0
-173 -109 -374 -242z"/>
<path d="M2613 4404 c-3 -9 -3 -537 0 -1172 6 -1097 7 -1156 24 -1172 26 -25
719 -451 743 -457 20 -5 20 -4 20 1144 l0 1150 -22 20 c-24 21 -695 470 -736
492 -19 10 -23 9 -29 -5z"/>
<path d="M4050 4124 c-206 -118 -381 -221 -388 -228 -9 -9 -12 -250 -10 -1159
l3 -1146 375 247 c206 137 381 255 388 264 9 12 12 247 10 1127 l-3 1111 -375
-216z"/>
</g>
</svg>
